#!OML:ASF H:\ColoradoDance\Project 1\Capture day 1\Session 8\male.ASF
:FULLY-SPECIFIED
:DEGREES
79
upperback -3.017130 -0.990630 1.461890
rfoot 22.784201 -0.522859
lradius 23.583401
lthumb 12.549900 62.155998
rradius 21.660700
lwrist -12.786600
rhand -33.716202 4.384740
rhumerus 44.152302 -41.565800 -15.727200
lowerneck -5.919740 -0.907358 3.879810
lhand -13.563600 32.552898
ltibia 5.804430
head 3.324320 -0.689886 -1.432050
rwrist 13.873400
lfingers 7.125020
rtoes 0.148159
lowerback 4.066240 -0.845738 1.461050
rfingers 7.125020
lclavicle 0.000000 -0.000000
upperneck 7.175180 -1.423780 -2.073890
rfemur -67.870796 -4.475930 27.637699
thorax -5.406330 -0.527003 0.783770
rclavicle 0.000000 -0.000000
rtibia 127.504997
lfoot -8.397920 5.764430
lhumerus 55.417198 44.382599 28.678101
rthumb -6.905650 -25.482599
root -5.422720 19.946501 -5.616590 -301.653015 -82.696701 -61.823502
ltoes -3.433880
lfemur 5.840110 -9.328190 -20.618999
80
upperback -3.165030 -0.957316 1.458770
rfoot 23.381001 0.393238
lradius 22.687000
lthumb 12.801400 62.865799
rradius 21.045799
lwrist -13.463900
rhand -33.648300 4.041210
rhumerus 43.796101 -40.568100 -14.831600
lowerneck -5.056060 -1.040350 3.776980
lhand -13.302700 33.278301
ltibia 5.264620
head 2.669040 -0.765502 -1.147220
rwrist 12.427000
lfingers 7.125020
rtoes -0.420397
lowerback 4.004690 -0.811186 1.277150
rfingers 7.125020
lclavicle -0.000000 0.000000
upperneck 5.747010 -1.607280 -1.335510
rfemur -67.077301 -4.446970 27.484800
thorax -5.523080 -0.504842 0.881937
rclavicle -0.000000 0.000000
rtibia 127.621002
lfoot -8.847260 5.446040
lhumerus 56.743401 43.905899 29.516001
rthumb -6.840070 -25.828300
root -5.416790 19.934700 -5.598570 -298.752991 -82.795799 -65.404999
ltoes -4.900380
lfemur 6.929010 -8.384610 -20.484100
81
upperback -3.389060 -0.973579 1.375300
rfoot 23.606400 -0.600866
lradius 22.051201
lthumb 13.156200 63.256199
rradius 21.515200
lwrist -14.022200
rhand -34.450298 4.404780
rhumerus 44.718800 -41.165100 -14.750200
lowerneck -4.088890 -0.884145 4.366630
lhand -12.934700 33.691299
ltibia -0.000000
head 1.290170 -0.676970 -1.455770
rwrist 13.538900
lfingers 7.125020
rtoes -0.191881
lowerback 3.475880 -0.816682 1.414850
rfingers 7.125020
lclavicle -0.000000 -0.000000
upperneck 2.050930 -1.349600 -2.174340
rfemur -66.597000 -3.902870 27.375000
thorax -5.459310 -0.522688 0.713530
rclavicle -0.000000 -0.000000
rtibia 127.723000
lfoot -5.989510 5.289300
lhumerus 56.507099 43.592201 28.782499
rthumb -7.614250 -25.438200
root -5.508860 19.946100 -5.544830 -298.554993 -82.878197 -66.206802
ltoes -3.162140
lfemur 10.513200 -7.705070 -20.935200
82
upperback -3.691520 -0.907950 1.358190
rfoot 23.736601 -1.251800
lradius 21.765800
lthumb 13.600100 63.981400
rradius 21.503500
lwrist -14.229200
rhand -34.376499 4.145290
rhumerus 45.273998 -41.240398 -14.608100
lowerneck -3.439140 -0.913109 4.292460
lhand -12.474100 34.445702
ltibia 0.000000
head -0.011534 -0.737191 -1.276110
rwrist 13.852400
lfingers 7.125020
rtoes 0.784912
lowerback 3.352110 -0.762718 1.378590
rfingers 7.125020
lclavicle 0.000000 -0.000000
upperneck -1.760240 -1.397090 -1.770530
rfemur -66.186798 -4.731780 27.878401
thorax -5.705920 -0.492721 0.713416
rclavicle 0.000000 -0.000000
rtibia 127.706001
lfoot -7.196780 5.445300
lhumerus 57.739899 43.839298 29.246000
rthumb -7.542990 -25.700199
root -5.536140 19.954399 -5.484410 -297.350006 -82.813599 -67.782204
ltoes -7.711620
lfemur 11.089000 -7.051440 -20.806601
83
upperback -3.894260 -0.539038 1.179510
rfoot 23.460699 -1.347590
lradius 22.747000
lthumb 14.050600 63.210400
rradius 21.662201
lwrist -13.402800
rhand -34.771999 3.751670
rhumerus 43.715900 -41.103699 -13.493800
lowerneck -2.131190 -0.892243 4.478860
lhand -12.006600 33.705299
ltibia -0.000000
head -1.892940 -0.821388 -1.236750
rwrist 12.872900
lfingers 7.125020
rtoes 0.672107
lowerback 2.369550 -0.453565 1.176330
rfingers 7.125020
lclavicle 0.000000 -0.000000
upperneck -7.050480 -1.396510 -1.561380
rfemur -65.973000 -5.886570 28.429800
thorax -5.355480 -0.308582 0.601903
rclavicle 0.000000 -0.000000
rtibia 127.579002
lfoot -7.825860 5.158280
lhumerus 57.550301 43.769699 28.106001
rthumb -7.924700 -26.079800
root -5.553890 19.969000 -5.474830 -291.531006 -82.841904 -73.435799
ltoes -10.004300
lfemur 11.068000 -5.924300 -20.279600
84
upperback -4.141050 -0.461470 1.459790
rfoot 24.303900 -0.917854
lradius 22.475901
lthumb 14.251100 64.938202
rradius 21.185900
lwrist -13.175100
rhand -34.827400 2.881280
rhumerus 42.853199 -41.227100 -12.747500
lowerneck -0.837014 -0.987186 4.913520
lhand -11.798600 35.447201
ltibia 0.000000
head -3.716210 -1.021330 -1.292250
rwrist 12.521800
lfingers 7.125020
rtoes 1.649570
lowerback 2.381910 -0.402600 1.181700
rfingers 7.125020
lclavicle 0.000000 -0.000000
upperneck -11.704000 -1.569560 -1.465930
rfemur -65.556602 -6.609300 29.079500
thorax -5.620240 -0.268303 0.887321
rclavicle 0.000000 -0.000000
rtibia 127.806000
lfoot -7.882470 4.106530
lhumerus 58.227699 43.789902 28.561899
rthumb -7.978220 -26.948200
root -5.531160 19.963699 -5.515630 -289.993011 -82.074997 -75.401299
ltoes -9.996800
lfemur 11.451000 -5.496810 -19.175501
85
upperback -4.377840 -0.427672 1.334300
rfoot 24.022900 -1.457500
lradius 21.746500
lthumb 14.462700 64.828499
rradius 21.624300
lwrist -13.705800
rhand -34.749001 2.823770
rhumerus 43.814400 -41.130600 -13.274400
lowerneck -0.704954 -0.519320 5.516440
lhand -11.579000 35.352501
ltibia 0.000000
head -4.602340 -0.907159 -1.554380
rwrist 13.099800
lfingers 7.125020
rtoes 2.222160
lowerback 2.286230 -0.372917 1.248500
rfingers 7.125020
lclavicle 0.000000 0.000000
upperneck -15.603800 -1.165850 -2.252270
rfemur -64.960899 -7.195160 28.767099
thorax -5.816330 -0.260330 0.719134
rclavicle 0.000000 0.000000
rtibia 127.633003
lfoot -8.242370 3.593490
lhumerus 58.496601 44.195702 29.341900
rthumb -7.902490 -27.008499
root -5.525020 19.961901 -5.542860 -292.279999 -82.664803 -73.361801
ltoes -10.557800
lfemur 11.736600 -5.055520 -19.680201
86
upperback -4.718210 -0.354086 1.378870
rfoot 24.082701 -2.054720
lradius 21.590700
lthumb 14.635700 65.152298
rradius 21.514000
lwrist -14.333500
rhand -34.429901 1.936300
rhumerus 43.081902 -40.801601 -12.500600
lowerneck -0.793667 -0.565371 5.106170
lhand -11.399400 35.688801
ltibia -0.000000
head -5.405070 -1.075020 -1.504800
rwrist 12.564400
lfingers 7.125020
rtoes 2.122100
lowerback 2.492880 -0.338048 1.659630
rfingers 7.125020
lclavicle -0.000000 0.000000
upperneck -18.229601 -1.414700 -2.334250
rfemur -64.970497 -6.631770 28.994200
thorax -6.298610 -0.247775 0.536116
rclavicle -0.000000 0.000000
rtibia 127.734001
lfoot -6.436400 3.725540
lhumerus 59.337700 44.006001 30.567900
rthumb -7.594550 -27.907301
root -5.511510 19.992701 -5.619920 -296.182007 -82.603401 -69.635803
ltoes -5.808650
lfemur 11.746100 -5.034070 -19.662901
87
upperback -4.718120 0.107399 1.643600
rfoot 24.082001 -0.344398
lradius 21.331301
lthumb 15.087300 65.582298
rradius 21.369499
lwrist -14.577100
rhand -33.496300 0.623588
rhumerus 44.884602 -41.397999 -13.399100
lowerneck -1.594240 -0.065288 5.103300
lhand -10.930600 36.152100
ltibia -0.000000
head -5.810130 -0.918278 -1.674120
rwrist 13.155800
lfingers 7.125020
rtoes 0.379296
lowerback 3.109110 -0.040710 2.176020
rfingers 7.125020
lclavicle 0.000000 -0.000000
upperneck -20.007200 -1.005040 -2.795820
rfemur -64.301102 -4.430540 26.945299
thorax -6.654600 -0.040438 0.488694
rclavicle 0.000000 -0.000000
rtibia 128.412994
lfoot -5.876210 0.804747
lhumerus 59.823002 45.715000 31.966101
rthumb -6.693330 -29.250601
root -5.435370 19.978901 -5.701980 -286.963013 -83.474503 -79.238297
ltoes -2.305350
lfemur 11.962200 -3.117070 -20.110500
